<svg xmlns="http://www.w3.org/2000/svg" version="1.2" viewBox="0 0 3000 463" width="3000" height="463">
	<title>White logo - no background-svg</title>
	<style>
		.s0 { fill: #ffffff } 
	</style>
	<g id="Layer">
		<g id="SvgjsG9724">
			<path id="Layer" class="s0" d="m169.2 48.1h-144c-13.8 0-25.1 11.2-25.1 25 0 13.8 11.3 25.1 25.1 25.1h144c13.9 0 25.1-11.3 25.1-25.1 0-13.8-11.2-25-25.1-25z"/>
			<path id="Layer" class="s0" d="m169.2 288h-49.9c-13.8 0-25.1 11.2-25.1 25.1 0 13.8 11.3 25 25.1 25h49.9c13.9 0 25.1-11.2 25.1-25 0-13.9-11.2-25.1-25.1-25.1z"/>
			<path id="Layer" class="s0" d="m169.2 168h-101.2c-13.8 0-25.1 11.3-25.1 25.1 0 13.8 11.3 25.1 25.1 25.1h101.2c13.9 0 25.1-11.3 25.1-25.1 0-13.8-11.2-25.1-25.1-25.1z"/>
			<path id="Layer" class="s0" d="m567.8 48.1h-287.6c-23.7 0-42.8 19.1-42.8 42.7v204.5c0 23.7 19.1 42.8 42.8 42.8h73.8v65.2c0 7 4.1 13.2 10.5 15.9 2.1 0.8 4.4 1.3 6.6 1.3 4.4 0 8.8-1.8 12.1-5.1l77.3-77.3h107.3c23.7 0 42.8-19.1 42.8-42.8v-204.5c0-23.6-19.1-42.7-42.8-42.7z"/>
		</g>
		<g id="SvgjsG9725">
			<path id="Layer" fill-rule="evenodd" class="s0" d="m941.5 112.6v58.4c-49.5 0-73.1 14.6-73.1 64.1v113.8h-65.9v-233.5h62.7c0 0 0 37 0 37 11.8-20.7 42.5-39.8 76.3-39.8zm258.1 116.1l-0.6 15.7h-173.2c2.7 38.9 28.6 57.5 59.8 57.5 23.4 0 41.6-10.9 50.4-31.6l60 8.9c-15.5 47.2-57.5 74.3-110 74.3-75.4 0-124.7-44.5-124.7-121.3 0-76.8 50.6-121.8 122.7-121.8 66.1 0 115.4 36.5 115.6 118.3zm-115.2-72c-29.7 0-50.4 13.9-56.8 45h107.3c-3.4-29.8-23.6-45-50.5-45zm247.3 196.8c-52.5 0-93.2-20.7-101.6-65l54.8-15.5c7 25 24.7 34.8 46.8 34.8 16.1 0 33.6-5 33.1-23.4-0.2-24.3-37-26.3-74-39.5-28-9.8-54.8-24.8-54.8-64.1 0-47.9 39.8-70 91.6-70 45.4 0 83.4 17.3 92.4 61.8l-50.6 11.4c-7.1-21.8-22.5-29.6-41.6-29.6-17.3 0-32 6.2-32 20.7 0 18.4 27 22.1 56.3 30 36.1 9.8 75.7 25.5 75.7 75.4 0 53.7-45.7 73-96.1 73zm280.1-242.7c61.6 0 112.5 45.2 112.5 121.8 0 76.6-50.9 121.8-112.5 121.8-30.4 0-57.7-11.8-71.6-33.2v141.4h-65.4v-347.2h62l1.9 31.3c12.9-23.2 41.3-35.9 73.1-35.9zm-14.7 189.3c34.3 0 61.8-25 61.8-67.5 0-42.5-27.5-67.5-61.8-67.5-35 0-62.3 26.6-62.3 67.5 0 40.9 27.3 67.5 62.3 67.5zm285.3 53.4c-74.3 0-127.9-45.2-127.9-121.6 0-75.9 53.2-121.1 127.9-121.1 75.3 0 128.2 45.2 128.2 121.1 0 76.4-53.2 121.6-128.2 121.6zm-0.6-52c37.9 0 63.8-27.8 63.8-69.6 0-41.8-25.9-69.5-63.8-69.5-36.6 0-62.3 27.7-62.3 69.5 0 41.8 25.7 69.6 62.3 69.6zm315.3-190.7c56.2 0 87.1 29.1 87.1 80.9v157.3h-65.7v-143.2c0-31.1-19.3-42.5-41.8-42.5-27 0-51.6 13.6-52 56.8v128.9h-65.5v-233.6h65.5v25.9c16.3-19.3 41.5-30.5 72.4-30.5zm316.1-110.9h65.4v349h-62l-1.6-30.4c-13.4 22.9-41.6 35.9-73.4 35.9-61.5 0-112.4-45.4-112.4-121.8 0-76.3 51.1-121.8 112.4-121.8 30.7 0 57.7 11.6 71.6 32.7 0 0 0-143.6 0-143.6zm-56.6 300.2c34.8 0 61.8-26.6 61.8-67.5 0-40.9-27.2-67.7-61.8-67.7-34.7 0-62 25.7-62 67.7 0 41.8 27.3 67.5 62 67.5zm189.8 48.8v-349h66.1v349zm286.7-233.5h67.1l-144.1 343.5h-66.3l53.4-119.5-96.2-224h71.4l55.7 153.6z"/>
		</g>
	</g>
</svg>